<?xml version="1.0" standalone="no"?>
<!DOCTYPE svg PUBLIC "-//W3C//DTD SVG 20010904//EN"
 "http://www.w3.org/TR/2001/REC-SVG-20010904/DTD/svg10.dtd">
<svg version="1.0" xmlns="http://www.w3.org/2000/svg"
 width="381.000000pt" height="381.000000pt" viewBox="0 0 381.000000 381.000000"
 preserveAspectRatio="xMidYMid meet">
<metadata>
Created by potrace 1.14, written by Peter Selinger 2001-2017
</metadata>
<g transform="translate(0.000000,381.000000) scale(0.100000,-0.100000)"
fill="#000000" stroke="none">
<path d="M1660 2414 c0 -3 5 -14 11 -25 9 -17 4 -26 -33 -63 -24 -23 -58 -48
-75 -55 -26 -11 -33 -19 -33 -42 0 -41 27 -52 67 -27 18 11 33 15 33 10 0 -5
12 -8 28 -6 15 1 32 2 39 3 14 1 55 42 48 49 -2 3 -18 -1 -36 -8 -26 -11 -32
-11 -39 0 -19 30 34 70 80 61 17 -3 39 -31 40 -50 0 -7 9 -22 20 -31 14 -12
17 -21 10 -25 -7 -4 -8 -11 -2 -18 8 -10 9 -62 2 -62 -1 0 -3 -11 -4 -25 -4
-36 -16 -70 -25 -70 -12 0 -5 -89 10 -119 17 -33 67 -81 105 -101 34 -18 68
-50 72 -70 2 -10 -4 -7 -20 7 -35 33 -66 41 -161 41 -95 0 -164 9 -172 22 -2
4 18 7 45 7 49 0 85 17 74 34 -3 5 -10 6 -16 3 -16 -10 -78 -12 -84 -2 -3 4
-9 6 -13 3 -5 -2 -18 6 -31 20 -25 26 -29 67 -11 89 13 16 101 49 101 38 0 -3
18 13 40 37 43 46 49 61 25 61 -8 0 -15 -4 -15 -9 0 -8 -53 -33 -75 -36 -5 0
-16 -4 -22 -8 -25 -16 -13 18 13 38 31 23 58 71 50 91 -8 20 -26 17 -26 -3 0
-10 -14 -29 -30 -43 -16 -14 -48 -42 -71 -62 -22 -21 -46 -38 -52 -38 -7 0
-30 12 -51 26 l-38 26 -23 -22 c-13 -12 -28 -34 -33 -49 -9 -25 -9 -31 2 -78
3 -13 1 -25 -4 -28 -15 -9 7 -54 45 -89 19 -19 40 -48 46 -65 13 -38 19 -38
47 -6 16 18 20 33 16 50 -3 14 -10 25 -15 25 -25 0 -49 42 -49 85 0 52 16 53
44 2 24 -42 107 -127 123 -127 7 0 13 -5 13 -10 0 -6 3 -9 8 -9 4 1 9 0 12 -1
3 -1 21 -3 40 -5 19 -1 35 -3 35 -4 0 -1 25 -4 55 -6 30 -3 66 -7 80 -10 43
-11 109 -59 121 -87 13 -32 28 -37 30 -10 7 85 -15 137 -77 188 -27 21 -55 45
-62 51 -7 7 -19 16 -25 20 -19 12 -57 64 -57 79 0 10 5 10 26 -1 22 -11 30
-11 48 0 12 7 31 11 44 9 34 -6 27 20 -10 37 -41 18 -47 56 -8 51 14 -1 36 0
49 3 l25 6 -29 23 c-16 13 -30 29 -31 37 -3 15 -10 46 -16 68 -1 7 5 15 15 16
33 6 48 15 42 25 -3 5 -14 10 -24 10 -13 0 -26 16 -41 48 -12 26 -29 55 -39
66 -30 34 -103 52 -148 35 -13 -5 -25 -4 -28 1 -7 11 -25 14 -25 4z"/>
<path d="M820 1991 l-35 -6 -1 -140 c0 -77 3 -145 8 -151 12 -17 123 -9 153
10 27 17 45 53 41 77 -4 28 -27 59 -43 59 -14 0 -13 4 5 20 12 12 22 26 23 33
0 7 2 20 4 29 4 23 -42 68 -71 68 -12 0 -28 2 -36 4 -7 2 -29 1 -48 -3z m76
-49 c32 -22 19 -64 -23 -77 -24 -7 -25 -5 -28 53 -1 26 3 32 20 32 11 0 25 -4
31 -8z m17 -140 c27 -33 9 -62 -41 -68 -27 -3 -28 -1 -29 41 -1 44 0 45 29 43
16 -1 34 -9 41 -16z"/>
<path d="M1044 1993 c-20 -4 -21 -10 -22 -141 -1 -75 1 -144 3 -152 3 -9 16
-16 30 -16 l25 0 0 152 c0 84 -3 154 -7 156 -5 2 -17 2 -29 1z"/>
<path d="M1119 1995 c0 0 -2 -12 -3 -27 -2 -26 1 -28 36 -28 l37 0 -1 -118
c-1 -121 3 -142 25 -138 32 5 36 17 34 121 -2 127 1 139 39 140 24 0 29 4 29
24 0 25 -6 26 -196 26z"/>
<path d="M2116 1988 c-11 -6 -14 -40 -14 -156 l0 -148 62 2 c33 1 66 3 71 3
23 3 56 38 65 70 8 30 6 36 -19 62 -28 27 -28 29 -10 45 27 24 25 75 -4 102
-16 15 -38 22 -80 24 -32 2 -64 0 -71 -4z m98 -44 c10 -4 16 -18 16 -35 0 -22
-6 -32 -26 -39 -35 -14 -44 -6 -44 41 0 40 13 49 54 33z m11 -138 c16 -12 18
-19 10 -42 -8 -22 -17 -29 -43 -31 -32 -3 -32 -2 -32 42 0 40 2 45 23 45 13 0
32 -6 42 -14z"/>
<path d="M2411 1985 c-6 -8 -30 -90 -48 -160 -1 -5 -9 -35 -17 -65 -21 -74
-20 -79 11 -76 21 2 30 11 38 37 11 31 16 34 50 34 34 0 38 -3 49 -35 9 -28
16 -35 36 -34 40 2 40 3 30 27 -5 12 -23 76 -41 142 -17 66 -35 124 -40 129
-12 13 -58 14 -68 1z m59 -170 c0 -6 -12 -11 -26 -11 -25 0 -25 1 -19 51 4 27
10 54 13 60 5 8 31 -74 32 -100z"/>
<path d="M2613 1983 c-10 -26 -9 -284 2 -292 6 -4 17 -7 25 -7 12 1 16 22 20
103 l5 102 47 -102 c31 -68 52 -102 63 -101 8 1 21 2 28 3 10 1 13 35 14 150
0 136 -1 150 -18 154 -30 8 -37 -13 -33 -113 l3 -95 -49 103 c-27 56 -53 102
-57 103 -4 0 -16 2 -26 4 -10 2 -21 -3 -24 -12z"/>
<path d="M2889 1991 c-13 -5 -15 -28 -15 -156 l1 -150 30 0 c29 0 29 1 26 51
-1 35 2 54 13 63 12 11 19 3 45 -51 29 -60 33 -64 64 -62 17 1 33 2 35 3 1 1
-9 18 -22 39 -26 42 -66 126 -66 139 0 4 18 33 40 63 38 51 39 55 20 62 -32
12 -47 0 -86 -63 -19 -32 -38 -59 -40 -59 -3 0 -5 21 -4 48 1 26 1 52 1 58 -1
15 -22 23 -42 15z"/>
<path d="M1686 1732 c-7 -11 65 -44 109 -49 54 -7 99 -37 135 -88 19 -27 51
-66 72 -86 32 -32 42 -36 86 -36 34 0 53 4 56 13 4 9 -3 14 -19 15 -39 2 -41
3 -71 26 -16 13 -43 48 -59 79 -43 81 -93 112 -195 120 -30 2 -67 6 -82 9 -14
4 -29 2 -32 -3z"/>
<path d="M787 1623 c-13 -12 -8 -103 6 -103 8 0 13 18 14 55 1 51 -4 65 -20
48z"/>
<path d="M829 1627 c-1 -1 -2 -26 -3 -55 -2 -33 2 -51 8 -49 6 2 10 17 9 33
-1 26 0 27 10 11 30 -46 36 -52 45 -40 4 7 7 25 6 40 -1 15 -3 36 -3 46 -1 10
-6 15 -12 12 -6 -4 -8 -13 -6 -19 3 -7 2 -18 -3 -25 -5 -9 -9 -5 -14 12 -5 20
-32 44 -37 34z"/>
<path d="M910 1619 c0 -4 7 -9 15 -13 9 -3 14 -18 13 -41 -1 -19 2 -38 5 -42
13 -12 21 7 20 46 -1 30 3 40 18 44 16 4 18 0 15 -44 l-3 -49 34 0 c18 0 33 5
33 10 0 6 -9 10 -21 10 -12 0 -19 5 -16 13 2 6 9 12 15 12 22 0 25 16 4 22
-28 7 -29 23 -1 23 11 0 18 4 14 10 -7 11 -145 11 -145 -1z"/>
<path d="M1083 1623 c-16 -6 -18 -103 -3 -103 6 0 10 9 10 20 0 11 4 20 10 20
5 0 15 -9 22 -20 19 -30 26 -24 24 23 -2 62 -19 78 -63 60z m41 -34 c-7 -11
-34 -12 -34 -1 0 14 11 21 26 15 8 -3 11 -9 8 -14z"/>
<path d="M1167 1623 c-8 -14 -4 -103 5 -103 8 0 11 11 11 45 -1 19 0 19 11 2
38 -63 48 -62 50 8 1 28 -3 47 -11 50 -9 3 -13 -6 -14 -28 l0 -32 -16 33 c-16
32 -27 39 -36 25z"/>
<path d="M1285 1618 c-32 -87 -34 -98 -21 -98 8 0 16 10 20 23 l6 22 19 -25
c27 -35 35 -20 19 36 -13 47 -34 68 -43 42z"/>
<path d="M1345 1620 c-3 -5 1 -12 8 -17 7 -4 13 -23 13 -42 -1 -19 5 -36 12
-39 8 -2 12 10 12 43 0 28 4 44 10 40 6 -3 10 0 10 8 0 15 -56 22 -65 7z"/>
<path d="M1429 1628 c-1 -2 -3 -27 -4 -55 -1 -38 2 -53 12 -53 9 0 13 16 13
55 0 30 -4 55 -10 55 -5 0 -11 -1 -11 -2z"/>
<path d="M1476 1608 c-21 -29 -20 -51 2 -71 26 -24 49 -21 68 7 34 53 -34 115
-70 64z m54 -33 c0 -29 -16 -41 -34 -25 -17 13 -15 38 4 50 19 12 30 3 30 -25z"/>
<path d="M1570 1575 c0 -59 17 -76 22 -22 l3 32 15 -29 c26 -51 40 -44 40 18
0 31 -4 56 -10 56 -5 0 -10 -15 -10 -32 l0 -33 -20 33 c-28 46 -40 40 -40 -23z"/>
<path d="M1676 1578 c-16 -56 -13 -74 8 -45 16 21 36 22 36 2 0 -8 7 -15 16
-15 12 0 14 5 9 18 -4 9 -10 28 -13 42 -5 27 -20 50 -32 50 -5 0 -15 -23 -24
-52z m34 7 c0 -8 -4 -15 -10 -15 -5 0 -7 7 -4 15 4 8 8 15 10 15 2 0 4 -7 4
-15z"/>
<path d="M1758 1623 c-3 -7 -3 -25 1 -85 1 -13 10 -18 31 -18 17 0 30 5 30 10
0 6 -9 10 -20 10 -17 0 -20 7 -20 45 0 39 -12 60 -22 38z"/>
<path d="M1883 1613 c4 -3 3 -11 -3 -18 -10 -12 26 -95 58 -132 48 -55 148
-75 273 -54 41 7 77 7 97 2 40 -12 41 1 2 29 -29 21 -113 34 -135 21 -5 -3
-35 -6 -65 -7 -85 -2 -145 35 -194 119 -15 26 -30 47 -34 47 -3 0 -2 -3 1 -7z"/>
</g>
</svg>
